<svg xmlns="http://www.w3.org/2000/svg" width="45" height="45" viewBox="0 0 45 45">
  <g id="инст" transform="translate(-965.75 -2795.5)">
    <g id="Сгруппировать_2070" data-name="Сгруппировать 2070" transform="translate(-750 -15.044)">
      <g id="Эллипс_36" data-name="Эллипс 36" transform="translate(1715.75 2810.544)" fill="#22312c" stroke="#fff" stroke-width="2">
        <circle cx="22.5" cy="22.5" r="22.5" stroke="none"/>
        <circle cx="22.5" cy="22.5" r="21.5" fill="none"/>
      </g>
      <g id="instagram" transform="translate(1726.945 2821.74)">
        <g id="Сгруппировать_2" data-name="Сгруппировать 2">
          <g id="Сгруппировать_1" data-name="Сгруппировать 1">
            <path id="Контур_1" data-name="Контур 1" d="M15.544,0H7.066A7.066,7.066,0,0,0,0,7.066v8.479A7.066,7.066,0,0,0,7.066,22.61h8.479a7.066,7.066,0,0,0,7.066-7.066V7.066A7.066,7.066,0,0,0,15.544,0ZM20.49,15.544a4.951,4.951,0,0,1-4.946,4.946H7.066A4.951,4.951,0,0,1,2.12,15.544V7.066A4.951,4.951,0,0,1,7.066,2.12h8.479A4.951,4.951,0,0,1,20.49,7.066Z" fill="#fff"/>
          </g>
        </g>
        <g id="Сгруппировать_4" data-name="Сгруппировать 4" transform="translate(5.652 5.652)">
          <g id="Сгруппировать_3" data-name="Сгруппировать 3">
            <path id="Контур_2" data-name="Контур 2" d="M133.652,128a5.652,5.652,0,1,0,5.652,5.652A5.653,5.653,0,0,0,133.652,128Zm0,9.185a3.533,3.533,0,1,1,3.533-3.533A3.538,3.538,0,0,1,133.652,137.185Z" transform="translate(-128 -128)" fill="#fff"/>
          </g>
        </g>
        <g id="Сгруппировать_6" data-name="Сгруппировать 6" transform="translate(16.628 4.475)">
          <g id="Сгруппировать_5" data-name="Сгруппировать 5">
            <ellipse id="Эллипс_1" data-name="Эллипс 1" cx="0.753" cy="0.753" rx="0.753" ry="0.753" fill="#fff"/>
          </g>
        </g>
      </g>
    </g>
  </g>
</svg>
