<svg xmlns="http://www.w3.org/2000/svg" width="45" height="45" viewBox="0 0 45 45">
  <g id="телега" transform="translate(-904.75 -2795.5)">
    <g id="Сгруппировать_2069" data-name="Сгруппировать 2069" transform="translate(-750 -15.044)">
      <g id="Эллипс_35" data-name="Эллипс 35" transform="translate(1654.75 2810.544)" fill="#22312c" stroke="#fff" stroke-width="2">
        <circle cx="22.5" cy="22.5" r="22.5" stroke="none"/>
        <circle cx="22.5" cy="22.5" r="21.5" fill="none"/>
      </g>
      <path id="telegram" d="M8.71,14.191l-.367,5.165a1.284,1.284,0,0,0,1.026-.5l2.463-2.354,5.1,3.738c.936.522,1.6.247,1.848-.861l3.35-15.7h0c.3-1.384-.5-1.925-1.412-1.585L1.03,9.637c-1.344.522-1.324,1.271-.228,1.61l5.034,1.566L17.53,5.5c.55-.364,1.051-.163.639.2Z" transform="translate(1665.152 2821.796)" fill="#fff"/>
    </g>
  </g>
</svg>
