<svg xmlns="http://www.w3.org/2000/svg" width="302.641" height="235.192" viewBox="0 0 302.641 235.192">
  <g id="мобилка_баннер_цены_" data-name="мобилка баннер цены " transform="translate(-44.102 -2532.554)">
    <g id="Сгруппировать_2085" data-name="Сгруппировать 2085" transform="translate(245.398 2647.749)">
      <path id="Контур_982" data-name="Контур 982" d="M-1646.132-323.348c1.821,32.2,3.3,33.677,35.5,35.5-32.2,1.821-33.677,3.3-35.5,35.5-1.821-32.2-3.3-33.677-35.5-35.5C-1649.43-289.671-1647.954-291.147-1646.132-323.348Z" transform="translate(1681.631 323.348)" fill="#ca7e45"/>
    </g>
    <g id="Сгруппировать_2086" data-name="Сгруппировать 2086" transform="translate(152.158 2536.043)">
      <path id="Контур_983" data-name="Контур 983" d="M1324.151-1261.376c11.137,37.23,20.166,46.258,57.4,57.4-37.23,11.137-46.259,20.166-57.4,57.4-11.138-37.23-20.166-46.259-57.4-57.4C1303.985-1215.118,1313.014-1224.146,1324.151-1261.376Z" transform="translate(-1266.755 1261.376)" fill="none" stroke="#ca7e45" stroke-width="2"/>
    </g>
    <path id="Контур_1169" data-name="Контур 1169" d="M16580.273,15139.143s-14.043-151.979,97.287-143.955,135.4,220.652,0,121.359,106.23-180.24,194.6-103.3" transform="translate(-16525.744 -12428.369)" fill="none" stroke="#fff" stroke-width="1" opacity="0.18"/>
    <g id="Сгруппировать_2084" data-name="Сгруппировать 2084" transform="translate(44.102 2625.848)">
      <path id="Контур_982-2" data-name="Контур 982" d="M-1656.645-323.348c1.282,22.665,2.321,23.7,24.985,24.986-22.664,1.282-23.7,2.321-24.985,24.986-1.282-22.664-2.321-23.7-24.986-24.986C-1658.966-299.644-1657.927-300.684-1656.645-323.348Z" transform="translate(1681.631 323.348)" fill="#fff"/>
    </g>
    <g id="Эллипс_37" data-name="Эллипс 37" transform="translate(131 2669.747)" fill="#22312c" stroke="#fff" stroke-width="1">
      <ellipse cx="15.5" cy="49" rx="15.5" ry="49" stroke="none"/>
      <ellipse cx="15.5" cy="49" rx="15" ry="48.5" fill="none"/>
    </g>
    <g id="Эллипс_38" data-name="Эллипс 38" transform="translate(143 2669.747)" fill="#22312c" stroke="#fff" stroke-width="1">
      <ellipse cx="15" cy="49" rx="15" ry="49" stroke="none"/>
      <ellipse cx="15" cy="49" rx="14.5" ry="48.5" fill="none"/>
    </g>
    <g id="Эллипс_39" data-name="Эллипс 39" transform="translate(154 2669.747)" fill="#22312c" stroke="#fff" stroke-width="1">
      <ellipse cx="15.5" cy="49" rx="15.5" ry="49" stroke="none"/>
      <ellipse cx="15.5" cy="49" rx="15" ry="48.5" fill="none"/>
    </g>
  </g>
</svg>
