<svg xmlns="http://www.w3.org/2000/svg" width="435.396" height="225.065" viewBox="0 0 435.396 225.065">
  <g id="Првая" transform="translate(-1246.428 -4386)">
    <g id="Сгруппировать_1875" data-name="Сгруппировать 1875" transform="translate(1329.565 4408.131)">
      <path id="Контур_982" data-name="Контур 982" d="M-1606.094-323.348c3.875,68.52,7.017,71.661,75.536,75.537-68.52,3.875-71.661,7.017-75.536,75.537-3.875-68.52-7.017-71.661-75.537-75.537C-1613.111-251.687-1609.97-254.828-1606.094-323.348Z" transform="translate(1681.631 323.348)" fill="#ca7e45"/>
    </g>
    <g id="Сгруппировать_1878" data-name="Сгруппировать 1878" transform="translate(1539.628 4550.554)">
      <path id="Контур_983" data-name="Контур 983" d="M1295.266-1261.376c5.532,18.494,10.017,22.979,28.511,28.511-18.494,5.532-22.979,10.017-28.511,28.511-5.533-18.494-10.018-22.979-28.511-28.511C1285.249-1238.4,1289.734-1242.882,1295.266-1261.376Z" transform="translate(-1266.756 1261.376)" fill="none" stroke="#fff" stroke-width="2"/>
    </g>
    <g id="Эллипс_9" data-name="Эллипс 9" transform="translate(1596.311 4386)" fill="#22312c" stroke="#fff" stroke-width="1">
      <ellipse cx="15.5" cy="49" rx="15.5" ry="49" stroke="none"/>
      <ellipse cx="15.5" cy="49" rx="15" ry="48.5" fill="none"/>
    </g>
    <path id="Контур_1015" data-name="Контур 1015" d="M17863.529,14957.287s213.4,24.071,103.453,108.783-386.08-50.125-266.629-90.652-2.131,225.033-136.512,140.779" transform="translate(-16317.148 -10532.82)" fill="none" stroke="#fff" stroke-width="1" opacity="0.12"/>
    <g id="Эллипс_10" data-name="Эллипс 10" transform="translate(1608.311 4386)" fill="#22312c" stroke="#fff" stroke-width="1">
      <ellipse cx="15" cy="49" rx="15" ry="49" stroke="none"/>
      <ellipse cx="15" cy="49" rx="14.5" ry="48.5" fill="none"/>
    </g>
    <g id="Эллипс_11" data-name="Эллипс 11" transform="translate(1619.311 4386)" fill="#22312c" stroke="#fff" stroke-width="1">
      <ellipse cx="15.5" cy="49" rx="15.5" ry="49" stroke="none"/>
      <ellipse cx="15.5" cy="49" rx="15" ry="48.5" fill="none"/>
    </g>
  </g>
</svg>
