<svg xmlns="http://www.w3.org/2000/svg" width="404.895" height="205.627" viewBox="0 0 404.895 205.627">
  <g id="Левая" transform="translate(-294.793 -4417.716)">
    <g id="Сгруппировать_1877" data-name="Сгруппировать 1877" transform="translate(1976.424 4845.936)">
      <path id="Контур_982" data-name="Контур 982" d="M-1653.425-323.348c1.447,25.586,2.62,26.759,28.206,28.206-25.585,1.447-26.759,2.62-28.206,28.206-1.447-25.586-2.62-26.759-28.206-28.206C-1656.045-296.589-1654.872-297.762-1653.425-323.348Z" transform="translate(0 0)" fill="#fff"/>
    </g>
    <g id="Сгруппировать_1876" data-name="Сгруппировать 1876" transform="translate(-849.977 5682.582)">
      <path id="Контур_983" data-name="Контур 983" d="M1331.549-1261.376c12.573,42.029,22.765,52.221,64.794,64.794-42.029,12.573-52.221,22.766-64.794,64.794-12.573-42.029-22.766-52.221-64.794-64.794C1308.784-1209.155,1318.976-1219.347,1331.549-1261.376Z" fill="none" stroke="#ca7e45" stroke-width="2"/>
    </g>
    <path id="Контур_1014" data-name="Контур 1014" d="M16580.348,15159.748s-15.854-171.568,109.826-162.51,152.854,249.094,0,137,121.15-208.332,283.063-121.15" transform="translate(-16273.785 -10541.289)" fill="none" stroke="#fff" stroke-width="1" opacity="0.18"/>
  </g>
</svg>
