<?xml version="1.0" encoding="utf-8"?>
<!-- Generator: Adobe Illustrator 25.4.1, SVG Export Plug-In . SVG Version: 6.00 Build 0)  -->
<svg version="1.1" id="Слой_1" xmlns="http://www.w3.org/2000/svg" xmlns:xlink="http://www.w3.org/1999/xlink" x="0px" y="0px"
	 viewBox="0 0 199 49.8" style="enable-background:new 0 0 199 49.8;" xml:space="preserve">
<style type="text/css">
	.st0{enable-background:new    ;}
	.st1{fill:#FFFFFF;}
	.st2{fill:#CA7E45;}
</style>
<g id="Лого" transform="translate(0 -11.01)">
	<g id="Слой_1_00000109747862113907256820000003625156468500499334_" transform="translate(0 11.01)">
		<g class="st0">
			<path class="st1" d="M15.6,17.8C15.6,11,20.6,6,28.3,6c6.1,0,9.2,3.2,9.6,5.7l-0.6,0.1c-0.7-3.9-5.7-5.3-8.8-5.3
				c-5.7,0-8.1,4.4-8.1,11.1c0,7.5,3,11.5,7.8,11.5c2.4,0,6.9,0,10.7-3.7l0.4,0.4c-3.9,3.8-8.6,4-11.1,4
				C20.6,29.7,15.6,24.6,15.6,17.8z"/>
		</g>
		<g class="st0">
			<path class="st1" d="M52.3,6C59.1,6,66,9.7,66,17.9c0,8.3-6.9,11.8-13.6,11.8c-6.7,0-13.6-3.6-13.6-11.8C38.7,9.7,45.6,6,52.3,6z
				 M43.5,17.8c0,8.5,3.9,11.4,8.8,11.4s8.8-2.9,8.8-11.4c0-8.5-3.9-11.4-8.8-11.4S43.5,9.4,43.5,17.8z"/>
		</g>
		<g class="st0">
			<path class="st1" d="M62.5,6.5h22.9l-14,18.7c2.1-1.7,4.6-2.8,7.1-2.8c1.4,0,2.9,0.4,4.2,1.2c5,3,3.3,11.3-2.9,11.3
				c-3.6,0-5.7-2.1-5.7-5.5h0.6c0,3.2,1.9,5,5.1,5c5.6,0,7.2-7.5,2.6-10.2c-1.3-0.8-2.6-1.1-3.9-1.1c-4,0-8,3.1-10.2,6.4h-5.4
				L79.6,7H62.5V6.5z"/>
		</g>
		<g class="st0">
			<path class="st1" d="M86.7,29.2v-0.6c1.4,0,1.9-0.9,4-7l5.2-15.1h4.9l8.6,22.2h0.8c2,0,3.6,1.8,3.6,3.8c0,2.1-1.7,3.8-3.8,3.8
				s-3.8-1.7-3.8-3.8h0.5c0,1.8,1.5,3.3,3.3,3.3c1.8,0,3.3-1.5,3.3-3.3c0-1.8-1.5-3.3-3.3-3.3H86.7z M88.2,28.6h16.4L96.3,7.1
				l-5,14.6C89.9,25.9,89.1,27.8,88.2,28.6z"/>
		</g>
		<g class="st0">
			<path class="st1" d="M117.6,6.5h4.9l8.8,22.7h-4.9l-3.6-9.3h-9.3l-3.2,9.3h-0.6L117.6,6.5z M113.8,19.3h8.9L118,7.2L113.8,19.3z"
				/>
		</g>
		<g class="st0">
			<path class="st1" d="M137.6,6.5v10.7h12.5V6.5h4.6v22.7h-4.6V17.7h-12.5v11.5H133V6.5H137.6z"/>
		</g>
		<g class="st0">
			<path class="st1" d="M151.8,6.5h4.6v22.2c2.8,0,11.6-1.1,12.2-13.7V6.5h4.6v22.7h-4.6V19c-1.4,6.1-5.8,10.2-12.2,10.2h-4.6V6.5z"
				/>
		</g>
		<g class="st0">
			<path class="st1" d="M170.7,6.5h17.9V7h-13.3v10.1h10.4v0.5h-10.4v11h13.3v0.6h-17.9V6.5z"/>
		</g>
		<g class="st0">
			<path class="st2" d="M26.1,39.3l-1.6,6h-0.7l-1.6-5.4l-1.6,5.4H20l-1.5-6H19l1.4,5.4l1.6-5.4h0.7l1.6,5.4l1.4-5.4H26.1z"/>
			<path class="st2" d="M32.8,45.3h-4.3v-6h4.2v0.4h-3.7V42h3.5v0.4h-3.5v2.5h3.9V45.3z"/>
			<path class="st2" d="M40.4,42.3c0,2-1,3-3,3h-1.8v-6h1.8c1,0,1.8,0.2,2.3,0.7C40.1,40.6,40.4,41.3,40.4,42.3z M39.9,42.3
				c0-0.4,0-0.7-0.1-1.1s-0.2-0.6-0.4-0.8c-0.2-0.2-0.5-0.4-0.8-0.5c-0.3-0.1-0.7-0.2-1.2-0.2H36v5.1h1.4c0.5,0,0.9-0.1,1.2-0.2
				c0.3-0.1,0.6-0.3,0.8-0.5c0.2-0.2,0.3-0.5,0.4-0.8C39.9,43.1,39.9,42.7,39.9,42.3z"/>
			<path class="st2" d="M48,42.3c0,2-1,3-3,3h-1.8v-6h1.8c1,0,1.8,0.2,2.3,0.7C47.7,40.6,48,41.3,48,42.3z M47.5,42.3
				c0-0.4,0-0.7-0.1-1.1s-0.2-0.6-0.4-0.8c-0.2-0.2-0.5-0.4-0.8-0.5c-0.3-0.1-0.7-0.2-1.2-0.2h-1.4v5.1h1.4c0.5,0,0.9-0.1,1.2-0.2
				c0.3-0.1,0.6-0.3,0.8-0.5c0.2-0.2,0.3-0.5,0.4-0.8C47.4,43.1,47.5,42.7,47.5,42.3z"/>
			<path class="st2" d="M51.3,45.3h-0.4v-6h0.4V45.3z"/>
			<path class="st2" d="M59.1,45.3h-0.6l-3.6-5.4v5.4h-0.4v-6H55l3.6,5.4v-5.4h0.4V45.3z"/>
			<path class="st2" d="M64.6,45.4c-0.4,0-0.8-0.1-1.2-0.2c-0.4-0.1-0.7-0.4-0.9-0.6c-0.3-0.3-0.4-0.6-0.6-1
				c-0.1-0.4-0.2-0.8-0.2-1.3c0-0.5,0.1-0.9,0.2-1.3s0.3-0.7,0.6-1c0.2-0.3,0.5-0.5,0.9-0.6s0.7-0.2,1.1-0.2c0.3,0,0.6,0,0.9,0.1
				c0.3,0.1,0.5,0.2,0.8,0.3c0.2,0.2,0.4,0.3,0.6,0.5c0.1,0.2,0.2,0.4,0.3,0.7h-0.5c0-0.2-0.1-0.3-0.2-0.5s-0.3-0.3-0.4-0.4
				c-0.2-0.1-0.4-0.2-0.6-0.3c-0.2-0.1-0.5-0.1-0.8-0.1c-0.3,0-0.7,0.1-1,0.2s-0.5,0.3-0.7,0.5c-0.2,0.2-0.4,0.5-0.5,0.8
				c-0.1,0.3-0.2,0.7-0.2,1.1c0,0.4,0.1,0.8,0.2,1.1s0.3,0.6,0.5,0.8c0.2,0.2,0.5,0.4,0.8,0.5c0.3,0.1,0.6,0.2,1,0.2
				c0.5,0,0.9-0.1,1.3-0.3c0.4-0.2,0.7-0.5,0.9-0.8v-1.1h-1.6v-0.4h2.1v2.9H67l-0.2-0.8c-0.1,0.2-0.3,0.3-0.5,0.4s-0.3,0.2-0.5,0.3
				c-0.2,0.1-0.4,0.1-0.6,0.2C65,45.4,64.8,45.4,64.6,45.4z"/>
		</g>
		<g class="st0">
			<path class="st1" d="M81.4,44.9l-0.3,0.3l-0.9-0.8c-0.1,0.2-0.3,0.4-0.4,0.5c-0.2,0.1-0.3,0.2-0.5,0.3c-0.2,0.1-0.3,0.1-0.5,0.2
				c-0.2,0-0.3,0-0.5,0c-0.3,0-0.5,0-0.7-0.1c-0.2-0.1-0.4-0.2-0.6-0.4s-0.3-0.3-0.4-0.5c-0.1-0.2-0.1-0.4-0.1-0.7
				c0-0.7,0.4-1.3,1.2-1.8c-0.3-0.3-0.5-0.6-0.6-0.8c-0.1-0.2-0.2-0.4-0.2-0.6c0-0.2,0-0.4,0.1-0.5s0.2-0.3,0.3-0.4
				c0.1-0.1,0.3-0.2,0.4-0.2c0.2-0.1,0.3-0.1,0.5-0.1c0.2,0,0.4,0,0.5,0.1c0.2,0.1,0.3,0.2,0.4,0.3c0.1,0.1,0.2,0.2,0.3,0.4
				s0.1,0.3,0.1,0.5c0,0.1,0,0.3-0.1,0.4c-0.1,0.1-0.1,0.3-0.2,0.4c-0.1,0.1-0.2,0.2-0.4,0.3s-0.3,0.2-0.5,0.3l1.8,1.8
				c0-0.1,0.1-0.2,0.1-0.3s0.1-0.2,0.1-0.4c0-0.1,0.1-0.3,0.1-0.4c0-0.1,0-0.3,0-0.4h0.4c0,0.7-0.2,1.3-0.4,1.8L81.4,44.9z M78,42.1
				c-0.1,0.1-0.3,0.2-0.4,0.3c-0.1,0.1-0.2,0.3-0.3,0.4c-0.1,0.1-0.2,0.3-0.2,0.4c-0.1,0.1-0.1,0.3-0.1,0.4c0,0.2,0,0.4,0.1,0.5
				c0.1,0.2,0.2,0.3,0.3,0.4s0.3,0.2,0.5,0.3C78,45,78.2,45,78.4,45c0.6,0,1.1-0.3,1.5-1L78,42.1z M79.1,40.5c0-0.3-0.1-0.5-0.3-0.6
				c-0.2-0.1-0.4-0.2-0.7-0.2c-0.1,0-0.3,0-0.4,0.1c-0.1,0-0.2,0.1-0.3,0.2s-0.1,0.2-0.2,0.3c0,0.1-0.1,0.2-0.1,0.3
				c0,0.1,0,0.2,0.1,0.3c0,0.1,0.1,0.2,0.2,0.3c0.1,0.1,0.2,0.2,0.2,0.3c0.1,0.1,0.2,0.2,0.3,0.3c0.1-0.1,0.3-0.2,0.4-0.3
				c0.1-0.1,0.2-0.2,0.3-0.3S79,41,79,40.9S79.1,40.7,79.1,40.5z"/>
		</g>
		<g class="st0">
			<path class="st2" d="M94.8,45.3h-4.3v-6h4.2v0.4h-3.7V42h3.5v0.4h-3.5v2.5h3.9V45.3z"/>
			<path class="st2" d="M102.2,39.3l-2.3,6h-0.6l-2.3-6h0.5l2.1,5.4l2.1-5.4H102.2z"/>
			<path class="st2" d="M109,45.3h-4.3v-6h4.2v0.4h-3.7V42h3.5v0.4h-3.5v2.5h3.9V45.3z"/>
			<path class="st2" d="M116.3,45.3h-0.6l-3.6-5.4v5.4h-0.4v-6h0.6l3.6,5.4v-5.4h0.4V45.3z"/>
			<path class="st2" d="M123.4,39.8h-2.1v5.5h-0.4v-5.5h-2.1v-0.4h4.6V39.8z"/>
			<path class="st2" d="M128.1,45.4c-0.4,0-0.8,0-1.1-0.1c-0.3-0.1-0.6-0.2-0.8-0.4c-0.2-0.2-0.4-0.3-0.5-0.6
				c-0.1-0.2-0.2-0.5-0.2-0.8h0.4c0,0.3,0.1,0.5,0.2,0.7c0.1,0.2,0.3,0.3,0.4,0.4c0.2,0.1,0.4,0.2,0.6,0.2c0.2,0,0.5,0.1,0.7,0.1
				c0.3,0,0.5,0,0.7-0.1c0.2-0.1,0.4-0.1,0.5-0.2c0.2-0.1,0.3-0.2,0.3-0.4c0.1-0.2,0.1-0.3,0.1-0.5c0-0.2,0-0.4-0.1-0.5
				c-0.1-0.1-0.2-0.3-0.3-0.4c-0.2-0.1-0.4-0.2-0.6-0.3c-0.3-0.1-0.6-0.2-1-0.2c-0.3-0.1-0.6-0.2-0.8-0.3c-0.2-0.1-0.4-0.2-0.6-0.3
				c-0.2-0.1-0.3-0.3-0.3-0.4c-0.1-0.2-0.1-0.3-0.1-0.6c0-0.2,0-0.4,0.1-0.6c0.1-0.2,0.2-0.4,0.4-0.5s0.4-0.2,0.6-0.3
				c0.3-0.1,0.5-0.1,0.8-0.1c0.3,0,0.6,0,0.8,0.1c0.3,0.1,0.5,0.2,0.7,0.3c0.2,0.1,0.3,0.3,0.5,0.5s0.2,0.4,0.2,0.7h-0.4
				c0-0.2-0.1-0.3-0.2-0.4s-0.2-0.3-0.4-0.4c-0.1-0.1-0.3-0.2-0.5-0.2c-0.2-0.1-0.4-0.1-0.7-0.1c-0.5,0-0.9,0.1-1.2,0.3
				c-0.3,0.2-0.4,0.5-0.4,0.8c0,0.2,0,0.3,0.1,0.4c0.1,0.1,0.1,0.2,0.3,0.3c0.1,0.1,0.3,0.2,0.5,0.2c0.2,0.1,0.4,0.1,0.7,0.2
				c0.2,0,0.4,0.1,0.5,0.1s0.4,0.1,0.5,0.1c0.2,0.1,0.3,0.1,0.5,0.2c0.2,0.1,0.3,0.2,0.4,0.3s0.2,0.3,0.3,0.4
				c0.1,0.2,0.1,0.4,0.1,0.6c0,0.3-0.1,0.5-0.2,0.7c-0.1,0.2-0.3,0.4-0.4,0.5s-0.4,0.3-0.7,0.4C128.7,45.4,128.4,45.4,128.1,45.4z"
				/>
			<path class="st2" d="M144,45.3h-0.5l-0.7-1.9h-2.9c-0.1,0.3-0.2,0.6-0.3,1c-0.1,0.3-0.2,0.7-0.4,1h-0.5c0.2-0.5,0.4-1,0.6-1.5
				s0.4-1,0.6-1.5c0.2-0.5,0.4-1,0.6-1.5s0.4-1,0.6-1.5h0.6L144,45.3z M142.7,43.1l-1.4-3.3l-1.3,3.3H142.7z"/>
			<path class="st2" d="M149,45.4c-0.4,0-0.8-0.1-1.2-0.2c-0.4-0.1-0.7-0.4-0.9-0.6c-0.3-0.3-0.4-0.6-0.6-1
				c-0.1-0.4-0.2-0.8-0.2-1.3c0-0.5,0.1-0.9,0.2-1.3c0.1-0.4,0.3-0.7,0.6-1c0.2-0.3,0.5-0.5,0.9-0.6s0.7-0.2,1.1-0.2
				c0.3,0,0.6,0,0.9,0.1c0.3,0.1,0.5,0.2,0.8,0.3c0.2,0.2,0.4,0.3,0.5,0.5c0.1,0.2,0.2,0.4,0.3,0.7H151c0-0.2-0.1-0.3-0.2-0.5
				c-0.1-0.2-0.3-0.3-0.4-0.4s-0.4-0.2-0.6-0.3s-0.5-0.1-0.8-0.1c-0.3,0-0.7,0.1-1,0.2s-0.5,0.3-0.7,0.5s-0.4,0.5-0.5,0.8
				c-0.1,0.3-0.2,0.7-0.2,1.1c0,0.4,0.1,0.8,0.2,1.1s0.3,0.6,0.5,0.8s0.5,0.4,0.8,0.5c0.3,0.1,0.6,0.2,1,0.2c0.5,0,0.9-0.1,1.3-0.3
				c0.4-0.2,0.7-0.5,0.9-0.8v-1.1h-1.6v-0.4h2.1v2.9h-0.2l-0.2-0.8c-0.1,0.2-0.3,0.3-0.5,0.4s-0.3,0.2-0.5,0.3
				c-0.2,0.1-0.4,0.1-0.6,0.2C149.4,45.4,149.2,45.4,149,45.4z"/>
			<path class="st2" d="M158.8,45.3h-4.3v-6h4.2v0.4h-3.7V42h3.5v0.4h-3.5v2.5h3.9V45.3z"/>
			<path class="st2" d="M166.1,45.3h-0.6l-3.6-5.4v5.4h-0.4v-6h0.6l3.6,5.4v-5.4h0.4V45.3z"/>
			<path class="st2" d="M173.4,40.9c0-0.2-0.1-0.3-0.2-0.5s-0.2-0.3-0.4-0.4c-0.2-0.1-0.4-0.2-0.6-0.3c-0.2-0.1-0.4-0.1-0.7-0.1
				c-0.3,0-0.7,0.1-0.9,0.2s-0.5,0.3-0.7,0.5c-0.2,0.2-0.4,0.5-0.5,0.8s-0.2,0.7-0.2,1.1c0,0.4,0.1,0.8,0.2,1.2
				c0.1,0.3,0.3,0.6,0.5,0.8c0.2,0.2,0.4,0.4,0.7,0.5c0.3,0.1,0.6,0.2,0.9,0.2c0.5,0,0.9-0.1,1.3-0.3c0.3-0.2,0.5-0.6,0.6-1h0.5
				c0,0.3-0.1,0.5-0.3,0.8c-0.1,0.2-0.3,0.4-0.5,0.6c-0.2,0.2-0.4,0.3-0.7,0.3c-0.3,0.1-0.6,0.1-0.9,0.1c-0.4,0-0.8-0.1-1.1-0.2
				c-0.3-0.1-0.6-0.4-0.9-0.6s-0.4-0.6-0.5-1c-0.1-0.4-0.2-0.8-0.2-1.3c0-0.5,0.1-0.9,0.2-1.3s0.3-0.7,0.5-1
				c0.2-0.3,0.5-0.5,0.9-0.6s0.7-0.2,1.1-0.2c0.3,0,0.6,0,0.8,0.1c0.3,0.1,0.5,0.2,0.7,0.4s0.4,0.3,0.5,0.5c0.1,0.2,0.2,0.4,0.3,0.7
				H173.4z"/>
			<path class="st2" d="M181.3,39.3l-2.3,3.4v2.6h-0.4v-2.6l-2.4-3.4h0.5l2.1,2.9l2-2.9H181.3z"/>
		</g>
	</g>
</g>
</svg>
