<svg xmlns="http://www.w3.org/2000/svg" width="53.158" height="53.158" viewBox="0 0 53.158 53.158">
  <g id="Безопасно" transform="translate(-258.695 -258.694)">
    <g id="Сгруппировать_1850" data-name="Сгруппировать 1850" transform="translate(275.867 271.89)">
      <path id="Прямоугольник_898" data-name="Прямоугольник 898" d="M8.017,0h0a8.017,8.017,0,0,1,8.017,8.017V10.8a8.017,8.017,0,0,1-8.017,8.017h0A8.017,8.017,0,0,1,0,10.8V8.017A8.017,8.017,0,0,1,8.017,0Z" transform="translate(1.391 0)" fill="#ca7e45"/>
      <path id="Прямоугольник_899" data-name="Прямоугольник 899" d="M5.383,0h0a5.383,5.383,0,0,1,5.383,5.383V8.164a5.383,5.383,0,0,1-5.383,5.383h0A5.383,5.383,0,0,1,0,8.164V5.383A5.383,5.383,0,0,1,5.383,0Z" transform="translate(4.025 2.634)" fill="#152622"/>
      <rect id="Прямоугольник_900" data-name="Прямоугольник 900" width="18.814" height="16.033" rx="8.017" transform="translate(0 10.732)" fill="#ca7e45"/>
      <path id="Контур_961" data-name="Контур 961" d="M1174.93,1314.52a2.127,2.127,0,1,0-3.436,1.676v2.275a1.309,1.309,0,0,0,2.618,0V1316.2A2.123,2.123,0,0,0,1174.93,1314.52Z" transform="translate(-1163.396 -1297.338)" fill="#152622"/>
    </g>
    <path id="Контур_962" data-name="Контур 962" d="M285.274,258.694a26.579,26.579,0,1,0,26.579,26.579A26.579,26.579,0,0,0,285.274,258.694Zm0,49.186a22.607,22.607,0,1,1,22.607-22.607A22.607,22.607,0,0,1,285.274,307.88Z" fill="#ca7e45"/>
  </g>
</svg>
